<?xml version="1.0" encoding="UTF-8"?> <svg xmlns="http://www.w3.org/2000/svg" viewBox="0 0 666 264" width="666" height="264"><defs><clipPath id="cp1"><path d="M-345 -324L1055 -324L1055 676L-345 676Z"></path></clipPath><linearGradient id="grd1" gradientUnits="userSpaceOnUse" x1="170.244" y1="45.692" x2="170.244" y2="14.005"><stop offset="0" stop-color="#ffe951"></stop><stop offset="1" stop-color="#289942"></stop></linearGradient><linearGradient id="grd2" gradientUnits="userSpaceOnUse" x1="123.67" y1="44.508" x2="123.67" y2="18.997"><stop offset="0" stop-color="#ffe951"></stop><stop offset="1" stop-color="#289942"></stop></linearGradient><linearGradient id="grd3" gradientUnits="userSpaceOnUse" x1="125.23" y1="69.649" x2="125.23" y2="40.373"><stop offset="0" stop-color="#ffe951"></stop><stop offset="1" stop-color="#289942"></stop></linearGradient><linearGradient id="grd4" gradientUnits="userSpaceOnUse" x1="84.117" y1="79.095" x2="84.117" y2="43.806"><stop offset="0" stop-color="#ffe951"></stop><stop offset="1" stop-color="#289942"></stop></linearGradient><linearGradient id="grd5" gradientUnits="userSpaceOnUse" x1="131.211" y1="147.875" x2="131.211" y2="50.983"><stop offset="0" stop-color="#ffe951"></stop><stop offset="1" stop-color="#289942"></stop></linearGradient><linearGradient id="grd6" gradientUnits="userSpaceOnUse" x1="92.308" y1="143.923" x2="92.308" y2="103.148"><stop offset="0" stop-color="#ffe951"></stop><stop offset="1" stop-color="#289942"></stop></linearGradient><linearGradient id="grd7" gradientUnits="userSpaceOnUse" x1="143.563" y1="207.79" x2="143.563" y2="74.231"><stop offset="0" stop-color="#ffe951"></stop><stop offset="1" stop-color="#289942"></stop></linearGradient><linearGradient id="grd8" gradientUnits="userSpaceOnUse" x1="110.876" y1="204.201" x2="110.876" y2="143.923"><stop offset="0" stop-color="#ffe951"></stop><stop offset="1" stop-color="#289942"></stop></linearGradient><linearGradient id="grd9" gradientUnits="userSpaceOnUse" x1="166.863" y1="238.787" x2="166.863" y2="113.549"><stop offset="0" stop-color="#ffe951"></stop><stop offset="1" stop-color="#289942"></stop></linearGradient><linearGradient id="grd10" gradientUnits="userSpaceOnUse" x1="126.66" y1="236.291" x2="126.66" y2="207.062"><stop offset="0" stop-color="#ffe951"></stop><stop offset="1" stop-color="#289942"></stop></linearGradient><linearGradient id="grd11" gradientUnits="userSpaceOnUse" x1="287.135" y1="201.131" x2="287.135" y2="48.756"><stop offset="0" stop-color="#ffe951"></stop><stop offset="1" stop-color="#289942"></stop></linearGradient><linearGradient id="grd12" gradientUnits="userSpaceOnUse" x1="444.808" y1="201.131" x2="444.808" y2="48.756"><stop offset="0" stop-color="#ffe951"></stop><stop offset="1" stop-color="#289942"></stop></linearGradient><linearGradient id="grd13" gradientUnits="userSpaceOnUse" x1="604.339" y1="201.131" x2="604.339" y2="48.756"><stop offset="0" stop-color="#ffe951"></stop><stop offset="1" stop-color="#289942"></stop></linearGradient><linearGradient id="grd14" gradientUnits="userSpaceOnUse" x1="258.656" y1="239.333" x2="258.656" y2="211.48"><stop offset="0" stop-color="#ffe951"></stop><stop offset="1" stop-color="#289942"></stop></linearGradient><linearGradient id="grd15" gradientUnits="userSpaceOnUse" x1="337.845" y1="238.852" x2="337.845" y2="212.405"><stop offset="0" stop-color="#ffe951"></stop><stop offset="1" stop-color="#289942"></stop></linearGradient><linearGradient id="grd16" gradientUnits="userSpaceOnUse" x1="416.893" y1="239.253" x2="416.893" y2="212.163"><stop offset="0" stop-color="#ffe951"></stop><stop offset="1" stop-color="#289942"></stop></linearGradient><linearGradient id="grd17" gradientUnits="userSpaceOnUse" x1="488.224" y1="238.852" x2="488.224" y2="212.405"><stop offset="0" stop-color="#ffe951"></stop><stop offset="1" stop-color="#289942"></stop></linearGradient><linearGradient id="grd18" gradientUnits="userSpaceOnUse" x1="561.26" y1="239.094" x2="561.26" y2="212.083"><stop offset="0" stop-color="#ffe951"></stop><stop offset="1" stop-color="#289942"></stop></linearGradient><linearGradient id="grd19" gradientUnits="userSpaceOnUse" x1="637.34" y1="238.852" x2="637.34" y2="212.405"><stop offset="0" stop-color="#ffe951"></stop><stop offset="1" stop-color="#289942"></stop></linearGradient></defs><style> tspan { white-space:pre } .shp0 { fill: url(#grd1) } .shp1 { fill: url(#grd2) } .shp2 { fill: url(#grd3) } .shp3 { fill: url(#grd4) } .shp4 { fill: url(#grd5) } .shp5 { fill: url(#grd6) } .shp6 { fill: url(#grd7) } .shp7 { fill: url(#grd8) } .shp8 { fill: url(#grd9) } .shp9 { fill: url(#grd10) } .shp10 { fill: url(#grd11) } .shp11 { fill: url(#grd12) } .shp12 { fill: url(#grd13) } .shp13 { fill: url(#grd14) } .shp14 { fill: url(#grd15) } .shp15 { fill: url(#grd16) } .shp16 { fill: url(#grd17) } .shp17 { fill: url(#grd18) } .shp18 { fill: url(#grd19) } </style><g id="Page 1" clip-path="url(#cp1)"><path id="Path 1" class="shp0" d="M98.78 29.92C98.78 29.92 166.34 72.67 241.7 50.98C241.7 50.98 178.83 53.84 125.78 14.01L98.78 29.92Z"></path><path id="Path 2" class="shp1" d="M106.35 29.84C118.76 37.41 140.99 44.51 140.99 44.51C139.54 40.29 125.78 19 125.78 19L106.35 29.84Z"></path><path id="Path 3" class="shp2" d="M8.76 50.36L12.81 71.11C177.26 120.41 241.7 50.98 241.7 50.98C174.56 92.23 75.69 40.37 75.69 40.37C45.11 51.92 8.76 50.36 8.76 50.36Z"></path><path id="Path 4" class="shp3" d="M12.35 53.64L15.78 70.17C15.78 70.17 87.39 93.73 155.89 82.97L152.14 69.24C152.14 69.24 114.86 63.31 75.38 43.81C75.38 43.81 50.88 53.17 12.35 53.64Z"></path><path id="Path 5" class="shp4" d="M20.72 102.73C24.72 118.13 38.09 147.87 38.09 147.87C209.72 139.14 241.7 50.98 241.7 50.98C187.87 129.46 20.72 102.73 20.72 102.73Z"></path><path id="Path 6" class="shp5" d="M25.14 106.53L39.65 143.92C124.11 137.06 159.48 118.13 159.48 118.13L159.48 103.15C99.98 115.42 25.14 106.53 25.14 106.53Z"></path><path id="Path 7" class="shp6" d="M54.42 174.09C54.42 174.09 70.65 195.93 84.58 207.79C84.58 207.79 212.32 157.45 232.71 74.23C232.71 74.23 201.29 146.63 54.42 174.09Z"></path><path id="Path 8" class="shp7" d="M60.56 176.43L85.21 204.2C112.98 193.59 157.76 164.73 157.76 164.73L161.19 143.92C117.82 164.93 60.56 176.43 60.56 176.43Z"></path><path id="Path 9" class="shp8" d="M105.6 225.89L125.78 238.79C197.96 201.76 228.13 113.55 228.13 113.55C181.01 188.44 105.6 225.89 105.6 225.89Z"></path><path id="Path 10" class="shp9" d="M109.76 225.47L126.3 236.29L143.56 207.06L109.76 225.47Z"></path><path id="Path 11" class="shp10" d="M242.81 48.76L242.81 201.13L331.46 201.13L331.46 167.58L283.31 167.58L283.31 141.31L328.98 141.31L328.98 107.77L283.31 107.77L283.31 82.3L331.46 82.3L331.46 48.76L242.81 48.76Z"></path><path id="Path 12" class="shp11" d="M478.6 48.76L445.12 130.2L413.5 48.76L373.62 48.76L347.16 201.13L387.46 201.13L400.48 113.42L400.89 113.42L436.64 201.13L452.76 201.13L490.17 113.42L490.58 113.42L501.95 201.13L542.45 201.13L518.89 48.76L478.6 48.76Z"></path><path id="Path 13" class="shp12" d="M559.6 48.76L559.6 201.13L600.1 201.13L600.1 141.31L644.53 141.31L644.53 107.77L600.1 107.77L600.1 82.3L649.08 82.3L649.08 48.76L559.6 48.76Z"></path><path id="Path 14" fill-rule="evenodd" class="shp13" d="M258.64 211.48L268.42 238.69C268.08 238.8 267.82 238.88 267.63 238.93C267.44 238.99 267.29 239.03 267.17 239.07C267.05 239.11 266.94 239.15 266.83 239.17C266.73 239.2 266.6 239.22 266.46 239.25L262.51 228.74L254.69 228.74L252.84 233.84C252.51 234.72 252.17 235.64 251.81 236.6C251.46 237.57 251.13 238.48 250.85 239.33C250.68 239.28 250.48 239.22 250.23 239.15C249.98 239.09 249.53 238.97 248.89 238.81L258.64 211.48ZM255.44 226.61L261.7 226.61C261.43 225.7 261.03 224.46 260.49 222.88C259.94 221.3 259.32 219.41 258.64 217.22L255.44 226.61Z"></path><path id="Path 15" fill-rule="evenodd" class="shp14" d="M335.64 212.4C337.25 212.4 338.77 212.75 340.18 213.45C341.59 214.14 342.83 215.09 343.88 216.3C344.94 217.5 345.78 218.91 346.4 220.51C347.01 222.12 347.32 223.83 347.32 225.65C347.32 227.47 347.01 229.18 346.4 230.78C345.78 232.39 344.94 233.79 343.88 234.98C342.83 236.17 341.59 237.11 340.18 237.81C338.77 238.5 337.25 238.85 335.64 238.85L328.37 238.85L328.37 212.4L335.64 212.4ZM330.4 236.52L335.6 236.52C336.93 236.52 338.18 236.24 339.36 235.68C340.54 235.12 341.56 234.34 342.44 233.35C343.32 232.36 344.02 231.21 344.53 229.9C345.04 228.59 345.29 227.17 345.29 225.65C345.29 224.15 345.04 222.74 344.53 221.41C344.02 220.09 343.32 218.93 342.44 217.94C341.56 216.95 340.54 216.17 339.36 215.6C338.18 215.02 336.93 214.73 335.6 214.73L330.4 214.73L330.4 236.52Z"></path><path id="Path 16" class="shp15" d="M422.07 220.51C421.59 221.64 421.12 222.8 420.64 224C420.17 225.21 419.71 226.38 419.26 227.51C418.81 228.65 418.38 229.73 417.98 230.74C417.58 231.76 417.23 232.64 416.95 233.39L408.41 212.16L406.49 213.09L416.95 239.25L427.3 213.13L425.45 212.16C424.26 215.08 423.13 217.86 422.07 220.51Z"></path><path id="Path 17" class="shp16" d="M487.21 238.85L489.24 238.85L489.24 212.4L487.21 212.4L487.21 238.85Z"></path><path id="Path 18" class="shp17" d="M558.43 213.15C556.99 213.86 555.73 214.83 554.65 216.06C553.57 217.29 552.72 218.72 552.11 220.35C551.49 221.98 551.18 223.73 551.18 225.61C551.18 227.45 551.49 229.2 552.11 230.82C552.72 232.46 553.57 233.88 554.65 235.1C555.73 236.32 556.99 237.29 558.43 238.01C559.88 238.73 561.43 239.09 563.09 239.09C564.61 239.09 566.06 238.78 567.43 238.15C568.81 237.52 570.11 236.63 571.34 235.48L570.02 233.59C568.96 234.61 567.84 235.39 566.67 235.94C565.49 236.49 564.3 236.76 563.09 236.76C561.72 236.76 560.43 236.47 559.24 235.88C558.04 235.3 556.99 234.49 556.11 233.48C555.22 232.47 554.51 231.28 553.99 229.93C553.47 228.58 553.21 227.15 553.21 225.63C553.21 224.08 553.47 222.62 553.99 221.24C554.51 219.87 555.22 218.68 556.11 217.68C556.99 216.67 558.04 215.88 559.24 215.29C560.43 214.71 561.72 214.41 563.09 214.41C565.23 214.41 567.24 215.16 569.14 216.66L570.74 215.21C569.48 214.2 568.21 213.42 566.93 212.89C565.65 212.35 564.37 212.08 563.09 212.08C561.43 212.08 559.88 212.44 558.43 213.15Z"></path><path id="Path 19" class="shp18" d="M630.16 212.4L630.16 238.85L644.52 238.85L644.52 236.52L632.18 236.52L632.18 224.48L639.97 224.48L639.97 222.16L632.18 222.16L632.18 214.73L643.74 214.73L643.74 212.4L630.16 212.4Z"></path></g></svg> 