<svg width="71" height="71" fill="none" xmlns="http://www.w3.org/2000/svg"><rect x=".294" y=".568" width="69.805" height="69.805" rx="17.451" fill="#391484"/><path fill-rule="evenodd" clip-rule="evenodd" d="M40.835 62.463c2.571.202 5.05.937 6.967.661 3.043-.434 2.866-3.214 2.866-4.867s1.181-1.543 1.702-1.892c.52-.349.771-1.408 1.555-1.757.784-.35.392-1.653.392-2.608 0-.956 2.865-.435 4.347-.35 1.475.086.434-5.473-.435-11.038-.87-5.566 5.443-11.848-1.567-22.776-7.01-10.923-25.207-14.952-36.51-7.127C8.85 18.534 9.898 28.097 11.288 37.312c.472 3.14.24 5.369-.27 6.949v.006c-1.2 6.018 5.677 7.163 7.568 2.222.753-2.43.79-5.185.025-9.728a16.91 16.91 0 011.977-12.613c4.825-8.039 15.258-10.641 23.297-5.816 8.039 4.824 10.64 15.257 5.816 23.296A16.947 16.947 0 0139.494 49.3c-4.372 1.463-6.79 2.791-8.578 4.592-.784.79-1.58 1.763-2.228 2.608v.006c-1.427 1.965-.306 4.72 1.316 5.737 1.629 1.004 3.71-1.035 10.83.22z" fill="#fff"/><path fill-rule="evenodd" clip-rule="evenodd" d="M49.387 23.628c3.416 5.272 3.765 12.245.318 17.995a16.947 16.947 0 01-10.206 7.671c-4.372 1.464-6.79 2.792-8.578 4.592-.784.79-1.58 1.763-2.229 2.608v.007c-1.096 1.512-.685 3.49.294 4.781 7.084-11.914 11.64-6.496 18.074-12.643 7.929-7.586 7.151-17.908 2.327-25.01zM25.326 58.52l-3.912-2.688-.208-.147 9.27-16.261 3.55 3.171.919.82.57-1.09 4.726-9.08 1.316.73.778-6.71-5.064 4.346 1.292.716-4.182 8.027-3.514-3.135-.882-.783-.587 1.028-9.778 17.15-3.76-2.584a1.038 1.038 0 00-1.432.263 1.038 1.038 0 00.263 1.433l9.466 6.49a1.038 1.038 0 001.432-.264 1.036 1.036 0 00-.263-1.432zm-6.784 3.888a1.031 1.031 0 01-1.17 1.696l-3.88-2.67a1.031 1.031 0 011.169-1.696l3.881 2.67zm3.355-1.972a1.03 1.03 0 01-1.169 1.696l-6.6-4.537a1.03 1.03 0 011.17-1.696l6.6 4.537z" fill="#C6DAFF"/></svg>